<svg width="106" height="56" viewBox="0 0 106 56" fill="none" xmlns="http://www.w3.org/2000/svg">
<g clip-path="url(#clip0_710_4018)">
<path d="M64.2367 21.9485V34.7341H67.9362V21.9485H64.2367ZM35.1291 21.9268V34.7232H38.862V24.7873L41.7727 24.7982C42.7282 24.7982 43.3948 25.0257 43.8503 25.5025C44.4391 26.1092 44.6724 27.0952 44.6724 28.883V34.7232H48.2942V27.6587C48.2942 22.6095 44.9946 21.9268 41.7727 21.9268H35.1291ZM70.2026 21.9485V34.7341H76.2019C79.4015 34.7341 80.4458 34.214 81.5679 33.0546C82.3678 32.242 82.8789 30.4433 82.8789 28.4821C82.8789 26.6835 82.4456 25.0799 81.679 24.083C80.3236 22.2952 78.3461 21.9485 75.3909 21.9485H70.2026ZM73.8689 24.7223H75.4576C77.7684 24.7223 79.2571 25.73 79.2571 28.3521C79.2571 30.9742 77.7684 31.9928 75.4576 31.9928H73.8689V24.7223ZM58.904 21.9485L55.8155 32.0794L52.8603 21.9485H48.8608L53.0825 34.7341H58.4152L62.6813 21.9485H58.904ZM84.612 34.7341H88.3116V21.9485H84.612V34.7341ZM94.9885 21.9485L89.8225 34.7232H93.4665L94.2886 32.4587H100.399L101.177 34.7124H105.143L99.9324 21.9485H94.9885ZM97.3882 24.2781L99.6324 30.2591H95.0774L97.3882 24.2781Z" fill="white"/>
<path d="M11.2542 24.0722V22.3169C11.432 22.3061 11.6097 22.2952 11.7875 22.2952C16.7202 22.1435 19.9531 26.4343 19.9531 26.4343C19.9531 26.4343 16.4647 31.1584 12.7207 31.1584C12.2207 31.1584 11.7319 31.0826 11.2653 30.9309V25.6C13.1873 25.8275 13.5761 26.651 14.7204 28.5255L17.2868 26.4235C17.2868 26.4235 15.4093 24.0289 12.2541 24.0289C11.9208 24.018 11.5875 24.0397 11.2542 24.0722ZM11.2542 18.2645V20.8867L11.7875 20.8541C18.6422 20.6266 23.1194 26.3368 23.1194 26.3368C23.1194 26.3368 17.9867 32.4262 12.6429 32.4262C12.1763 32.4262 11.7208 32.3828 11.2653 32.307V33.9323C11.643 33.9756 12.0319 34.0081 12.4096 34.0081C17.3868 34.0081 20.9864 31.5268 24.4748 28.6013C25.0525 29.0564 27.4189 30.1508 27.9077 30.6275C24.597 33.3363 16.8757 35.5142 12.4985 35.5142C12.0763 35.5142 11.6764 35.4925 11.2764 35.4492V37.7354H30.1852V18.2645H11.2542ZM11.2542 30.9309V32.3178C6.65475 31.516 5.37713 26.846 5.37713 26.846C5.37713 26.846 7.58797 24.4623 11.2542 24.0722V25.5891H11.2431C9.3211 25.3616 7.81017 27.1169 7.81017 27.1169C7.81017 27.1169 8.66562 30.0749 11.2542 30.9309ZM3.08852 26.651C3.08852 26.651 5.81041 22.7286 11.2653 22.3169V20.8867C5.22159 21.3634 0 26.3476 0 26.3476C0 26.3476 2.9552 34.6907 11.2542 35.4492V33.9323C5.16604 33.1955 3.08852 26.651 3.08852 26.651Z" fill="white"/>
</g>
<defs>
<clipPath id="clip0_710_4018">
<rect width="105.143" height="56" fill="white"/>
</clipPath>
</defs>
</svg>
