<svg width="72" height="56" viewBox="0 0 72 56" fill="none" xmlns="http://www.w3.org/2000/svg">
<g clip-path="url(#clip0_710_4026)">
<path d="M49.7861 18.5237C49.7861 18.5237 48.4539 19.0564 46.9045 20.7717C45.3551 22.487 44.4527 24.4159 45.1206 24.9289C45.3771 25.1238 45.9686 25.161 47.042 24.1861C48.0326 23.3222 48.8102 22.2392 49.3135 21.0224C50.0068 19.3245 49.7861 18.5446 49.7861 18.526M58.2657 21.6096C56.5441 20.723 55.2859 19.6367 53.9768 18.9647C52.7278 18.3206 51.9201 18.0513 50.9103 18.1871C50.7695 18.2123 50.6305 18.2472 50.4944 18.2916C50.4944 18.2916 51.0143 20.0754 48.945 23.072C46.8491 26.1103 44.9472 26.0894 44.4065 25.255C43.8404 24.3741 44.5717 22.5787 45.793 20.9806C47.072 19.3094 49.3182 17.9237 49.3182 17.9237C49.3182 17.9237 48.6018 17.4838 46.8433 18.4854C45.1275 19.4579 42.1743 21.7791 39.4336 25.6937C36.693 29.6083 36.1499 31.7623 35.7571 33.4579C35.3643 35.1535 35.7213 36.9698 37.5931 36.9698C39.4648 36.9698 41.6439 34.102 42.2586 33.1051C43.4013 31.2482 44.1465 28.4001 42.5914 28.7913C41.8253 28.9839 41.2049 29.8358 40.8132 30.6563C40.5659 31.1833 40.3768 31.7359 40.2493 32.3043C39.7059 32.5293 39.1955 32.8276 38.7323 33.191C38.217 33.5744 37.7353 34.0015 37.2926 34.4676C37.2926 34.4676 37.2996 33.1121 38.3753 30.9186C39.451 28.7251 41.4256 27.7235 42.544 27.6295C43.5515 27.5483 44.8629 28.4071 43.7514 31.5755C42.6399 34.7438 39.3608 38.5958 35.9166 38.6434C32.738 38.6875 30.6583 34.6127 35.0823 27.5019C39.979 19.6459 45.7225 17.2354 47.5874 16.9673C49.4522 16.6992 50.0588 17.5256 50.0588 17.5256C51.1813 17.063 52.3937 16.8622 53.6047 16.9383C55.8821 17.0927 57.6429 18.7117 59.9676 19.849C59.3633 20.4293 58.7868 21.0386 58.2668 21.6096M68.4968 18.9647C66.9185 19.9813 64.7348 20.9028 62.6366 20.7055C62.1051 21.2568 61.5366 21.8951 60.967 22.5915C64.6054 23.3145 67.7932 21.0502 69.4882 19.1225C70.1061 18.4294 70.6369 17.6628 71.0688 16.8397C70.2971 17.647 69.4335 18.3603 68.4957 18.9647M63.651 29.2613C63.6786 29.2131 63.7011 29.1621 63.7181 29.1093C63.7072 29.0256 63.6682 28.9481 63.6074 28.8898C63.5467 28.8315 63.4679 28.7959 63.3841 28.7889C63.0375 28.7727 62.565 28.8388 61.3252 30.2176C60.2967 31.3562 59.4116 32.6175 58.6897 33.9732C57.9803 35.2754 57.6926 36.2456 58.1004 36.4963C58.233 36.5652 58.3866 36.581 58.5303 36.5404C58.8064 36.4743 59.1195 36.2143 59.5956 35.6607C59.8185 35.4007 60.0658 35.0328 60.3616 34.6255C61.1819 33.5043 63.2432 29.975 63.651 29.2613ZM50.7728 30.7608C50.9796 30.2176 51.2431 29.151 50.6954 28.7321C50.1073 28.2876 48.6076 29.3309 48.5995 30.401C48.5891 31.4966 49.6555 31.9921 49.9109 32.0618C50.0565 32.1012 50.1073 32.0954 50.1778 31.9782C50.404 31.5867 50.6028 31.1799 50.7728 30.7608ZM49.6382 32.7535C49.2666 32.5811 48.9199 32.3589 48.6076 32.0931C48.2944 31.8292 48.0327 31.5093 47.8358 31.1495C47.815 31.1147 47.7942 31.1414 47.7711 31.1728C47.748 31.2041 47.6555 31.2888 46.856 32.4656C46.0564 33.6425 44.8282 36.0808 45.9397 36.4963C46.6515 36.7621 47.8358 35.5098 48.4816 34.68C48.9217 34.1008 49.3205 33.4912 49.6752 32.8556C49.7087 32.7848 49.6752 32.7685 49.6394 32.7535M62.2472 35.5702C61.9457 36.0553 61.6013 36.9861 62.5938 36.4069C63.8082 35.7025 65.5378 33.0668 65.5378 33.0668H66.3223C65.6085 34.1693 64.8137 35.2168 63.9445 36.2004C62.714 37.5698 61.2131 38.814 60.1559 38.6909C58.9208 38.5459 59.3078 36.9176 59.3078 36.9176C59.3078 36.9176 57.5412 38.807 56.3188 38.6712C54.6677 38.4878 55.1715 36.4383 55.1715 36.4383C55.1715 36.4383 53.3043 38.7397 52.0322 38.6689C50.038 38.5528 50.5394 36.1156 51.094 34.3991C51.391 33.4811 51.666 32.7604 51.666 32.7604C51.666 32.7604 51.4684 32.8126 51.0432 32.8765C50.8214 32.9078 50.417 32.931 50.417 32.931C50.417 32.931 49.5862 34.4026 48.9219 35.287C48.2575 36.1713 45.4337 39.2202 43.7722 38.6097C42.2355 38.0457 42.7439 35.6827 43.6382 33.8049C44.9438 31.0671 48.6157 27.134 50.7335 27.6539C52.9288 28.1889 50.7832 32.2126 50.7832 32.2126C50.7832 32.2126 50.7832 32.2277 50.8063 32.2382C50.8502 32.2544 50.9646 32.2672 51.2292 32.2149C51.5034 32.1588 51.7721 32.0784 52.0322 31.9747C52.0322 31.9747 54.2391 27.3324 56.677 24.2952C59.1149 21.258 63.978 16.0273 65.8868 17.2923C66.3489 17.6033 66.1409 18.6745 65.5124 19.9744C65.2293 20.0668 64.9416 20.1442 64.6505 20.2065C65.071 19.4394 65.3495 18.7929 65.4327 18.3415C65.7204 16.7724 62.0727 20.0823 59.4661 23.6383C57.8961 25.7821 56.5012 28.0499 55.2951 30.4195C55.766 30.1311 56.2155 29.8088 56.64 29.4551C57.8027 28.4867 58.9076 27.4505 59.9491 26.3517C60.952 25.3204 61.8926 24.2299 62.766 23.0859C63.0435 23.0724 63.32 23.0437 63.5944 23C62.6422 24.2982 61.6038 25.5305 60.4864 26.6883C59.4465 27.7444 58.3211 28.8806 57.3436 29.7058C56.4706 30.4516 55.5496 31.139 54.5868 31.7635C54.5868 31.7635 52.3072 36.3814 53.547 36.6774C54.276 36.8538 55.7157 34.6266 55.7157 34.6266C55.7157 34.6266 57.5944 31.7472 58.7267 30.4486C60.2715 28.6845 61.6013 27.6632 62.9301 27.6446C63.7042 27.6307 64.1606 28.457 64.1606 28.457L64.5245 27.8907H66.766C66.766 27.8907 62.58 35.0259 62.2449 35.5632M68.4957 18.9647C66.9174 19.9813 64.7337 20.9028 62.6354 20.7055C62.1039 21.2568 61.5355 21.8951 60.9659 22.5915C64.6043 23.3145 67.792 21.0502 69.487 19.1225C70.1053 18.4295 70.6366 17.6628 71.0688 16.8397C70.2971 17.647 69.4335 18.3603 68.4957 18.9647ZM37.0165 22.465H34.8848L33.6797 24.4205H35.8114L37.0165 22.465ZM26.9228 29.2369C27.8298 27.9881 30.3325 23.6116 30.3325 23.6116C30.3219 23.528 30.2831 23.4506 30.2225 23.3923C30.162 23.334 30.0833 23.2983 29.9997 23.2913C29.6531 23.2751 29.0754 23.3923 27.928 24.8349C26.7807 26.2775 25.8899 27.4253 25.2406 28.6195C24.5288 29.9228 24.218 30.842 24.627 31.0915C24.7598 31.1583 24.9122 31.174 25.0557 31.1356C25.3214 31.0683 25.6692 30.8002 26.1464 30.2489C26.3706 29.9913 26.6247 29.6443 26.9228 29.2369ZM15.4843 23.318C14.895 22.8712 13.3964 23.9169 13.3884 24.9846C13.3791 26.0813 14.7367 26.4167 14.9123 26.4249C14.964 26.4292 15.0158 26.4183 15.0614 26.3935C15.0927 26.3752 15.1177 26.3476 15.133 26.3146C15.2926 25.9995 15.4361 25.6765 15.5628 25.3467C15.7697 24.8035 16.0319 23.737 15.4843 23.318ZM14.5958 27.0933C14.1894 26.9658 13.8011 26.7864 13.4403 26.5595C13.0907 26.3305 12.8064 26.0142 12.6154 25.6415C12.5946 25.6066 12.5715 25.6333 12.5507 25.6647C12.5299 25.696 12.4097 25.8469 11.6079 27.0283C10.806 28.2098 9.61825 30.6261 10.7309 31.0416C11.4403 31.312 12.6385 30.0493 13.289 29.223C13.7758 28.5736 14.2256 27.8971 14.6362 27.1966C14.6628 27.1258 14.6362 27.1096 14.5969 27.0968M32.0066 27.821H32.7877C32.7877 27.821 28.8743 33.5078 26.664 33.2432C25.43 33.0981 25.7963 31.5685 25.7963 31.5685C25.7963 31.5685 24.0632 33.6065 22.471 33.1933C21.0268 32.8208 21.9592 30.4079 21.9592 30.4079C21.7951 30.4741 18.6697 34.0127 16.4733 33.1643C14.1752 32.273 15.3687 29.31 15.8055 28.4187C16.1764 27.6678 16.5865 26.9367 16.5865 26.9367C16.5865 26.9367 16.2341 27.0365 16.0088 27.0875C15.7835 27.1386 15.4577 27.2036 15.4577 27.2036C15.4577 27.2036 14.3705 28.9781 13.7061 29.8636C13.0417 30.7491 10.2179 33.7922 8.55412 33.1863C6.89033 32.5805 7.30281 30.242 8.23754 28.3851C9.75343 25.3734 13.3502 21.6723 15.5166 22.234C17.705 22.7946 15.8933 26.3599 15.8933 26.3599C15.8933 26.3599 16.3289 26.4167 17.3722 25.7018C18.8742 24.6724 20.8569 21.9033 23.0037 22.2282C24.0158 22.3814 24.9586 23.4201 23.6692 25.3931C23.2579 26.0268 22.5681 26.5931 22.0401 26.0326C21.7108 25.6844 21.9985 25.0496 22.3439 24.6155C22.4784 24.4386 22.6541 24.2976 22.8556 24.2049C23.0571 24.1122 23.2781 24.0707 23.4994 24.084C23.4994 24.084 23.8541 23.2716 22.9517 23.2832C22.2215 23.2971 20.3728 25.0066 19.3295 26.7336C18.3728 28.3189 16.9228 31.0196 18.3786 31.608C19.7131 32.1488 22.2527 29.1209 23.4289 27.5344C24.6051 25.9479 27.2856 22.3524 29.5341 22.2085C30.3082 22.1574 30.7692 22.8665 30.7692 22.8665L31.0292 22.4534H33.2776C33.2776 22.4534 29.043 29.5514 28.7126 30.0888C28.4526 30.5089 28.1071 31.4536 29.0592 30.9244C30.0113 30.3952 32.0066 27.821 32.0066 27.821ZM30.7831 39.1946C29.1275 38.0435 27.1452 37.4624 25.1331 37.5385C24.5885 37.5534 24.0551 37.6971 23.5761 37.9578C23.0971 38.2185 22.6861 38.589 22.3763 39.0391C21.519 37.5362 19.824 36.6135 17.2035 36.6344C12.9689 36.6832 8.76902 38.6445 5.44144 38.6422C2.25251 38.6422 -0.0733339 36.6286 0.00176782 33.0529C0.141573 26.7777 5.42064 21.1268 9.36059 18.584C11.6321 17.1229 13.5316 16.6888 14.7737 16.8292C15.6795 16.9302 16.7691 17.9817 16.0816 19.531C15.0718 21.7953 13.6772 21.6096 13.7292 20.5268C13.7581 19.8224 14.2249 19.379 14.5761 19.1341C14.7991 18.9798 15.1931 18.9357 15.3988 18.931C15.5987 18.7616 15.7454 17.5221 14.1278 17.9295C12.5102 18.3368 10.546 19.9384 8.68121 22.0077C6.81638 24.077 3.91283 27.9881 3.19532 32.0954C2.86025 33.9999 3.07978 37.4735 7.57549 37.434C11.3883 37.4027 17.0083 34.8808 22.1729 34.933C24.1776 34.9527 25.9223 35.4959 27.2822 36.3385C28.6178 37.1648 30.2192 38.3718 30.7877 39.1958" fill="white"/>
</g>
<defs>
<clipPath id="clip0_710_4026">
<rect width="71.0688" height="56" fill="white"/>
</clipPath>
</defs>
</svg>
