<svg width="70" height="56" viewBox="0 0 70 56" fill="none" xmlns="http://www.w3.org/2000/svg">
<g clip-path="url(#clip0_710_4022)">
<path d="M7.69701 40.4241C5.61792 40.3415 3.91691 39.7726 2.58686 38.716C2.33303 38.5141 1.72817 37.9089 1.52525 37.6536C0.985894 36.9754 0.619206 36.3154 0.374628 35.5831C-0.377974 33.3288 0.0093629 30.3708 1.48253 27.1243C2.74386 24.345 4.69016 21.5884 8.08577 17.7706C8.58596 17.2088 10.0755 15.5658 10.0851 15.5658C10.0887 15.5658 10.0075 15.7064 9.90533 15.8777C9.02243 17.3565 8.26698 19.0985 7.85543 20.6065C7.19433 23.0263 7.27407 25.1029 8.08897 26.7131C8.65111 27.8225 9.61483 28.7833 10.6985 29.3145C12.5957 30.244 15.3733 30.3209 18.7653 29.5395C18.9989 29.4854 30.5713 26.4134 44.4819 22.7127C58.3926 19.0116 69.776 15.9859 69.7778 15.9884C69.7817 15.9916 37.4593 29.8225 20.6803 36.9979C18.023 38.1339 17.3124 38.4208 16.0632 38.8594C12.8698 39.9809 10.0093 40.5159 7.69701 40.4241Z" fill="white"/>
</g>
<defs>
<clipPath id="clip0_710_4022">
<rect width="69.7778" height="56" fill="white"/>
</clipPath>
</defs>
</svg>
