<svg width="66" height="56" viewBox="0 0 66 56" fill="none" xmlns="http://www.w3.org/2000/svg">
<g clip-path="url(#clip0_710_4028)">
<path d="M0 15.2875C0.0498941 15.2875 0.0975202 15.292 0.147414 15.292C1.62836 15.292 3.10931 15.292 4.59025 15.292C4.69231 15.292 4.72406 15.317 4.72406 15.4236C4.71953 16.9158 4.71953 18.4059 4.72406 19.8982C4.72406 20.0047 4.69231 20.0274 4.59025 20.0274C3.05941 20.0252 1.53084 20.0274 0 20.0274V15.2875Z" fill="white"/>
<path d="M11.6544 25.3298C11.8766 25.0576 12.0649 24.7968 12.2848 24.5655C13.3009 23.4973 14.5301 22.8283 15.9929 22.6264C17.4988 22.4178 18.9729 22.5629 20.37 23.1889C21.8668 23.8579 22.8828 24.9987 23.5042 26.5C23.8126 27.2439 23.985 28.0218 24.0757 28.8201C24.1347 29.3349 24.146 29.852 24.146 30.3691C24.146 33.4988 24.146 36.6285 24.146 39.7583C24.146 39.8626 24.1279 39.8966 24.0122 39.8966C22.5925 39.8921 21.1705 39.8921 19.7508 39.8966C19.6488 39.8966 19.6215 39.8717 19.6215 39.7673C19.6238 36.8236 19.6238 33.8776 19.6215 30.9315C19.6215 30.2829 19.5648 29.6434 19.3766 29.0197C19.1476 28.2577 18.7711 27.5909 18.1134 27.1101C17.653 26.7745 17.1314 26.584 16.5735 26.4955C15.9362 26.3957 15.2989 26.3776 14.6752 26.559C13.3236 26.9536 12.4141 27.8154 11.9878 29.1671C11.7746 29.8497 11.6861 30.5528 11.6861 31.2649C11.6839 34.0975 11.6861 36.9279 11.6861 39.7605C11.6861 42.5931 11.6362 39.9102 11.5319 39.9102C10.1371 39.9102 8.74464 39.9102 7.34987 39.9102C7.25462 39.9102 7.22287 39.8921 7.22287 39.7877C7.22514 34.1973 7.22514 28.6047 7.22287 23.012C7.22287 22.9213 7.24101 22.8918 7.33853 22.8918C8.73556 22.8963 10.1349 22.8963 11.5319 22.8918C11.6272 22.8918 11.6498 22.919 11.6498 23.0097C11.6453 23.7355 11.6498 24.4589 11.6498 25.1847V25.3275L11.6544 25.3298Z" fill="white"/>
<path d="M26.6097 25.1642C26.6097 22.2409 26.6097 19.3198 26.6074 16.3965C26.6074 16.2876 26.6279 16.2513 26.7481 16.2513C28.1542 16.2559 29.5603 16.2559 30.9641 16.2513C31.0843 16.2513 31.1024 16.2876 31.1024 16.3965C31.1002 18.5147 31.1002 20.633 31.1024 22.7512C31.1024 22.9122 31.082 22.8941 31.2499 22.8941C32.2432 22.8941 33.2366 22.8941 34.2299 22.8941C34.3229 22.8941 34.3478 22.9167 34.3478 23.012C34.3456 24.2117 34.3456 25.4137 34.3478 26.6134C34.3478 26.7087 34.3206 26.7291 34.2299 26.7291C33.2252 26.7246 32.2205 26.7291 31.2158 26.7246C31.1319 26.7246 31.1002 26.7382 31.1002 26.8334C31.1047 28.929 31.1002 31.0245 31.1092 33.1201C31.1092 33.6031 31.1365 34.0839 31.2567 34.5579C31.4404 35.2837 31.928 35.6669 32.6446 35.7894C33.1708 35.8801 33.7037 35.9028 34.2367 35.9005C34.3251 35.9005 34.3501 35.9232 34.3501 36.0117C34.3478 37.3293 34.3478 38.647 34.3501 39.9646C34.3501 40.0599 34.3161 40.0712 34.2344 40.0735C33.4407 40.0758 32.6469 40.0667 31.8577 39.9782C30.8825 39.8717 29.9367 39.6698 29.0727 39.1777C28.0748 38.6084 27.4556 37.7398 27.095 36.6671C26.8841 36.0343 26.7798 35.3789 26.7072 34.719C26.6211 33.9252 26.6097 33.1291 26.612 32.3331C26.612 29.9427 26.612 27.5524 26.612 25.1642H26.6097Z" fill="white"/>
<path d="M60.0434 27.4299V39.7537C60.0434 39.8558 59.9935 39.9079 59.8937 39.9079C58.4876 39.9079 57.0837 39.9079 55.6776 39.9102C55.571 39.9102 55.5483 39.8785 55.5483 39.7764C55.5483 31.5416 55.5483 23.3068 55.5483 15.072C55.5483 14.97 55.5733 14.9405 55.6776 14.9405C57.0905 14.945 58.5034 14.945 59.9163 14.9405C60.0207 14.9405 60.0456 14.9677 60.0456 15.072C60.0434 19.1906 60.0456 23.3114 60.0456 27.4299H60.0434Z" fill="white"/>
<path d="M4.6056 31.3942V39.7651C4.6056 39.8603 4.55571 39.9079 4.45819 39.9079C3.06342 39.9079 1.67092 39.9079 0.276157 39.9102C0.167297 39.9102 0.13101 39.8921 0.13101 39.7719C0.135546 34.1928 0.135546 28.6115 0.13101 23.0324C0.13101 22.9145 0.165029 22.8941 0.273889 22.8941C1.67546 22.8986 3.07703 22.8986 4.4786 22.8941C4.58519 22.8941 4.6056 22.9258 4.6056 23.0256C4.60333 25.8151 4.6056 28.6047 4.6056 31.3965V31.3942Z" fill="white"/>
<path d="M53.187 30.4666C53.0736 29.2374 52.7402 28.0785 52.1483 26.9922C51.2162 25.2867 49.8826 24.0189 48.0842 23.2615C46.3765 22.5403 44.6029 22.3906 42.7886 22.7126C41.0537 23.0211 39.5455 23.8058 38.2868 25.0304C36.6947 26.5794 35.7966 28.4754 35.6334 30.7002C35.5177 32.2673 35.7536 33.7778 36.4135 35.2111C37.1619 36.8349 38.2891 38.1208 39.8449 39.0166C41.1081 39.7424 42.4688 40.1529 43.9271 40.2368C45.2788 40.3139 46.6033 40.1755 47.8937 39.7583C49.5515 39.223 50.9372 38.2773 52.0939 36.9846C52.1574 36.9143 52.1233 36.8893 52.0689 36.8485C51.0484 36.0752 50.0301 35.3018 49.0118 34.5239C48.9437 34.4718 48.9074 34.4672 48.8485 34.5375C48.6217 34.8029 48.3563 35.0274 48.0706 35.227C46.5783 36.2747 44.9363 36.5809 43.1606 36.2067C42.1854 36.0003 41.3734 35.515 40.7384 34.7416C40.3393 34.2563 40.0785 33.6984 39.9016 33.0997C39.8607 32.9591 39.8562 32.9613 39.9991 32.9613H53.0328C53.0713 32.9613 53.1076 32.9591 53.1462 32.9613C53.2006 32.9659 53.2278 32.9523 53.2256 32.8887C53.2119 32.0814 53.2573 31.274 53.1825 30.4666H53.187ZM48.7895 29.7862H44.392V29.8044C42.9338 29.8044 41.4755 29.8044 40.0172 29.8067C39.9174 29.8067 39.888 29.784 39.897 29.6819C39.9424 29.1671 40.1397 28.7113 40.4277 28.2917C41.0219 27.4253 41.8474 26.872 42.8499 26.5908C44.0405 26.2574 45.2266 26.2846 46.3855 26.7268C47.431 27.1283 48.2316 27.8154 48.7056 28.8473C48.8213 29.0991 48.8938 29.3644 48.9188 29.6411C48.9324 29.784 48.9301 29.784 48.7895 29.784V29.7862Z" fill="white"/>
<path d="M63.6376 36.6762C62.744 36.6762 61.9956 37.4268 61.9956 38.3249C61.9956 39.2185 62.7372 39.9669 63.6376 39.9737C64.5243 39.9805 65.2864 39.223 65.2886 38.3317C65.2886 37.4314 64.5379 36.6762 63.6376 36.6762ZM63.6376 39.6857C62.8506 39.6948 62.2678 39.1164 62.261 38.3295C62.2564 37.5561 62.8302 36.9733 63.6036 36.9642C64.4223 36.9574 64.9983 37.538 64.9847 38.393C64.9756 39.0189 64.4948 39.6743 63.6353 39.6834L63.6376 39.6857Z" fill="white"/>
<path d="M64.0204 38.4428C64.22 38.3862 64.3515 38.266 64.3855 38.055C64.4241 37.8282 64.381 37.6241 64.1837 37.4813C64.0839 37.4087 63.966 37.3769 63.8435 37.3747C63.594 37.3701 63.3446 37.3747 63.0951 37.3679C63.0089 37.3656 62.9794 37.3883 62.9794 37.479C62.984 37.9893 62.9794 38.4973 62.9794 39.0076C62.9794 39.5178 62.9794 39.2661 63.2402 39.2661C63.3128 39.2661 63.3378 39.248 63.3355 39.1709C63.331 38.9758 63.3332 38.7785 63.3355 38.5812C63.3355 38.5494 63.3196 38.5109 63.3627 38.4927C63.4375 38.4565 63.594 38.5041 63.6371 38.5767C63.7619 38.7785 63.8843 38.9826 64.0091 39.1845C64.0295 39.2185 64.0408 39.2638 64.0952 39.2638C64.1996 39.2638 64.3016 39.2638 64.4264 39.2638C64.2608 38.9872 64.1043 38.7309 63.9478 38.4678C63.9773 38.4587 63.9977 38.4497 64.0181 38.4428H64.0204ZM63.6008 38.1911C63.3378 38.1911 63.3355 38.1911 63.34 37.9394C63.34 37.8464 63.2992 37.7262 63.3582 37.6672C63.4171 37.6083 63.5373 37.6536 63.6303 37.6491C63.7052 37.6468 63.78 37.6445 63.8548 37.6672C63.9887 37.7058 64.0408 37.7693 64.0431 37.9099C64.0453 38.0505 63.9887 38.1276 63.8594 38.1707C63.7709 38.2002 63.6802 38.182 63.6031 38.1888L63.6008 38.1911Z" fill="white"/>
</g>
<defs>
<clipPath id="clip0_710_4028">
<rect width="65.2886" height="56" fill="white"/>
</clipPath>
</defs>
</svg>
