<svg width="70" height="56" viewBox="0 0 70 56" fill="none" xmlns="http://www.w3.org/2000/svg">
<g clip-path="url(#clip0_710_4020)">
<path fill-rule="evenodd" clip-rule="evenodd" d="M26.0413 19.2619C25.569 19.2634 25.0943 19.2818 24.6164 19.3209C21.4421 19.5855 18.4208 21.3551 18.4153 24.0417C18.4119 25.4042 19.3901 26.5081 20.9058 26.4595C22.6868 26.3997 24.1489 24.9869 24.9144 23.2056C25.2048 22.5297 24.6669 22.249 24.411 22.6381C23.9652 23.3179 23.3443 23.8648 22.6137 24.2211C21.7757 24.6274 20.88 24.5178 20.6084 23.844C20.2266 22.8935 21.0202 21.471 22.8313 20.8017C25.2545 19.9134 27.7818 20.3923 30.2345 20.8571C30.4294 20.8941 30.624 20.931 30.8179 20.967C30.8555 20.967 30.9958 21.0441 30.8718 21.1081C30.8066 21.1432 30.7416 21.1775 30.676 21.2121C30.2669 21.4277 29.8358 21.6549 29.2124 22.186C28.6938 22.6258 28.0148 23.2113 27.4896 23.849C27.1888 24.2118 26.9386 24.5519 26.6867 24.8942C26.5022 25.145 26.3168 25.3969 26.11 25.6598C26.0419 25.7496 25.959 25.7455 25.959 25.7455C25.8508 25.7636 25.7429 25.7811 25.6352 25.7986C24.5564 25.9739 23.5039 26.145 22.5328 26.8136C22.3118 26.9646 22.2159 27.2325 22.3499 27.4375C22.4703 27.6193 22.7456 27.6386 22.9368 27.5009C23.6004 27.0095 24.2835 26.7781 25.067 26.7567C25.1012 26.7588 25.1177 26.7643 25.1273 26.7852C25.1333 26.7969 25.1297 26.8217 25.1156 26.8399C23.942 28.452 23.6481 28.8163 22.7651 29.8157C22.3136 30.3294 21.8694 30.763 21.3733 31.2142C19.3687 33.0582 17.2126 33.0263 16.4391 31.8702C15.9768 31.1763 16.0378 30.448 16.3407 29.8437C16.7136 29.1036 17.4672 28.5611 18.094 28.2444C18.3267 28.1269 18.3936 27.8323 18.1606 27.5638C18.0126 27.3888 17.6534 27.3578 17.386 27.4063C16.565 27.5565 15.5948 28.1711 15.0216 28.9106C14.3755 29.7406 14.0527 30.7481 14.1611 31.8789C14.3557 33.9192 16.0524 35.0978 17.9786 35.0842C19.5113 35.0723 20.9551 34.6125 22.6923 32.8664C24.2758 31.2739 25.7216 28.9126 27.0766 26.6995L27.1684 26.5495C27.2118 26.4775 27.2425 26.4388 27.4525 26.413C28.319 26.3056 29.5984 26.1835 30.4185 26.1364C30.6007 26.1265 30.6378 26.1285 30.7109 26.2186C30.9245 26.4855 31.2454 26.712 31.5024 26.8499L31.5133 26.8558C31.6313 26.9193 31.6902 26.951 31.7858 26.9525C31.9072 26.9551 32.0017 26.8904 32.0628 26.822C32.1498 26.7275 32.1738 26.6038 32.1268 26.5242C32.1073 26.491 32.0053 26.4214 31.8884 26.3417C31.7109 26.2208 31.4991 26.0764 31.4889 25.9999C31.4763 25.9208 31.5638 25.9016 31.5638 25.9016C31.9842 25.7711 32.4216 25.5023 32.6867 24.9996C32.9471 24.5048 32.9891 23.8443 32.5127 23.4771C32.0946 23.1546 31.4629 23.2055 30.9589 23.6534C30.4659 24.0882 30.3027 24.7208 30.3693 25.2752C30.3813 25.3713 30.3764 25.4036 30.244 25.4146C29.73 25.4553 29.2288 25.478 28.7061 25.5017C28.4582 25.5129 28.2049 25.5244 27.9437 25.5381C27.8894 25.542 27.8722 25.5065 27.9038 25.4691C28.839 23.8604 30.2353 22.7149 31.7797 21.5867C31.8652 21.5233 31.8575 21.412 31.8502 21.3067C31.8499 21.3029 31.8496 21.299 31.8494 21.2951C31.8482 21.2783 31.8472 21.2617 31.8466 21.2456C32.7173 21.4329 33.5788 21.6705 34.4401 21.9081C36.3373 22.4315 38.2333 22.9545 40.223 22.9381C41.4193 22.9285 42.5647 22.7483 43.6594 22.1537C44.6222 21.6337 45.0129 21.1527 45.0417 20.6529C45.0641 20.3074 44.8215 20.089 44.476 20.1634C41.5529 20.8283 38.7644 20.821 35.8563 20.4726C34.7167 20.3356 33.593 20.1489 32.4748 19.9632C30.3338 19.6074 28.2132 19.2551 26.0413 19.2619ZM31.8761 23.9241C31.9444 23.9277 32.0083 23.9504 32.06 23.9942C32.2141 24.1246 32.1411 24.4497 31.9855 24.6748C31.8155 24.9232 31.5272 25.1375 31.2642 25.1898C31.2114 25.1994 31.1658 25.177 31.1441 25.0613C31.1013 24.755 31.2019 24.3447 31.5325 24.0556C31.636 23.9651 31.7622 23.918 31.8761 23.9241Z" fill="white"/>
<path fill-rule="evenodd" clip-rule="evenodd" d="M54.468 23.9832C54.1549 23.9835 53.8386 23.9837 53.5588 23.9837C53.4269 23.9837 53.3587 23.9997 53.2963 24.1211C53.1618 24.3765 52.0353 26.0671 51.1494 27.3967C50.6903 28.0857 50.2957 28.6778 50.1374 28.9229C50.0596 29.0321 49.964 29.0168 49.9531 28.8923C49.9061 28.4661 49.5344 27.9762 48.9486 27.7417C48.5021 27.5623 48.0654 27.5299 47.6118 27.5895C46.7926 27.6984 46.0628 28.1267 45.4209 28.609C45.0162 28.9138 44.6348 29.2562 44.249 29.6024C43.7131 30.0835 43.1688 30.5721 42.5424 30.9775C41.9543 31.357 41.1492 31.688 40.6104 31.1944C40.1229 30.7468 40.1777 29.7523 40.9238 28.9835C41.0024 28.9028 41.0967 28.9701 41.0818 29.0425C41.0113 29.3903 41.098 29.7361 41.3647 29.9787C41.6901 30.2673 42.1559 30.3002 42.5544 30.1075C43.025 29.8769 43.3014 29.431 43.3823 28.9249C43.5069 28.1402 42.8966 27.4479 42.1335 27.3926C41.5133 27.3495 40.9187 27.5631 40.3395 28.0368C40.0488 28.2752 39.8834 28.4518 39.6325 28.8054C39.5711 28.8926 39.4771 28.9014 39.4802 28.7727C39.5092 27.7681 39.0892 27.2027 38.2502 27.1842C37.5994 27.1691 36.9035 27.5184 36.3614 27.9467C35.9156 28.3012 35.5119 28.742 35.1029 29.1886C34.9666 29.3375 34.8296 29.4871 34.6903 29.6342C34.6211 29.7068 34.5605 29.7035 34.5412 29.5627C34.5242 28.897 34.3552 28.2522 34.0439 27.7944C33.9339 27.6351 33.7023 27.5562 33.5075 27.6638C33.4906 27.673 33.466 27.6854 33.4355 27.7008C33.3033 27.7674 33.0619 27.8891 32.8771 28.0365C32.764 28.1287 32.7203 28.2621 32.77 28.4332C33.0703 29.4274 33.0042 30.5581 32.5968 31.5134C32.2226 32.3877 31.4953 33.177 30.6408 33.4439C30.0778 33.6207 29.4923 33.5342 29.1301 33.0398C28.6326 32.3577 28.8337 31.1716 29.5749 30.1863C30.2296 29.3193 31.1757 28.7682 32.1203 28.4133C32.2316 28.371 32.2542 28.3006 32.2229 28.2071C32.1905 28.1101 32.1461 27.9913 32.1093 27.8927C32.1066 27.8854 32.1039 27.8782 32.1013 27.8712C32.0829 27.8221 32.067 27.7792 32.0561 27.7482C31.9696 27.5202 31.727 27.4828 31.4311 27.515C30.7451 27.5941 30.1264 27.8268 29.5151 28.1508C27.9143 28.9996 27.112 30.6422 26.7599 31.5212C26.5907 31.943 26.4458 32.2068 26.2586 32.4402C26.0063 32.7544 25.6895 33.0401 25.1103 33.5439C25.0581 33.5901 25.0189 33.6864 25.0628 33.7757C25.1221 33.8971 25.4231 34.3181 25.5083 34.3557C25.6026 34.4017 25.7119 34.3375 25.7558 34.3062C26.1611 34.0344 26.646 33.6032 26.8834 33.3107C26.9665 33.2107 27.0522 33.2527 27.0964 33.4047C27.3178 34.1871 27.8977 34.8258 28.6997 35.093C30.1674 35.5831 31.6899 34.8737 32.8389 33.6387C33.3344 33.1062 33.615 32.7026 33.8317 32.3909C33.9343 32.2433 34.0226 32.1162 34.1126 32.006C34.1886 31.9127 34.2764 31.801 34.3749 31.6757L34.3755 31.6749C34.8919 31.0179 35.7016 29.9877 36.6371 29.2859C37.0458 28.9778 37.5297 28.7427 37.7731 28.8986C37.9682 29.024 38.0312 29.3151 37.7178 29.8792C37.0139 31.1522 36.104 32.5632 35.4407 33.5917C35.0336 34.223 34.7193 34.7104 34.6027 34.9332C34.5468 35.0348 34.5956 35.1144 34.703 35.1144C35.1537 35.1124 35.6015 35.1127 36.027 35.1129L36.4271 35.1131C36.5167 35.1089 36.5572 35.0684 36.6022 35.0055C36.8093 34.6845 37.0135 34.3671 37.2164 34.0519C37.8673 33.0404 38.504 32.051 39.1744 31.0372C39.2241 30.9588 39.2692 31.0195 39.2711 31.0538C39.2893 31.3622 39.3658 31.7845 39.5507 32.0618C39.8834 32.5742 40.3546 32.7943 40.8774 32.7977C41.2931 32.8024 41.5033 32.7398 41.9517 32.574C42.2654 32.4574 42.5623 32.2996 42.8344 32.1049C42.9658 32.0148 42.9887 32.1659 42.9853 32.1891C42.7837 33.2622 43.0329 34.5333 44.1098 35.0606C45.3989 35.6899 46.8148 34.8055 47.6296 34.0071C47.7093 33.9301 47.7952 33.9382 47.8033 34.1038C47.8205 34.4088 47.9595 34.7705 48.2144 35.0239C48.897 35.7023 50.2748 35.4335 51.6576 34.3735C52.5455 33.6953 53.4744 32.7367 54.3134 31.7216C54.3445 31.6825 54.3677 31.619 54.3076 31.5552C54.2239 31.4686 54.1158 31.3737 54.0156 31.2858C53.9627 31.2394 53.912 31.1949 53.8682 31.1546C53.8105 31.106 53.7256 31.1199 53.6768 31.1567C53.4333 31.386 53.1968 31.6244 52.9573 31.8656C52.3509 32.4767 51.7259 33.1065 50.9235 33.6541C50.5461 33.9147 49.9449 34.1252 49.6747 33.7633C49.5694 33.6228 49.5815 33.4282 49.6852 33.173C49.9189 32.5964 52.6297 28.4459 54.2513 25.963C54.8962 24.9757 55.3688 24.2521 55.445 24.1216C55.491 24.0417 55.4429 23.9828 55.3411 23.9828C55.0781 23.9828 54.7746 23.983 54.468 23.9832ZM48.4808 28.9305C48.3654 28.8756 48.2388 28.8498 48.1036 28.851C47.5175 28.8561 46.7698 29.3673 46.0811 30.2067C45.3859 31.0523 45.0106 31.9125 44.9968 32.7508C44.9915 33.0487 45.1062 33.4167 45.3721 33.5536C45.9701 33.8659 46.6934 33.4014 47.2144 32.9744C47.5602 32.6934 47.8454 32.4017 48.0982 32.0274C48.1376 31.9695 48.1756 31.9143 48.2123 31.8609C48.4318 31.5417 48.6069 31.2871 48.7952 30.8878C48.8257 30.8251 48.8105 30.8058 48.7836 30.7959C48.7065 30.7685 48.6283 30.7108 48.6179 30.6512C48.6118 30.6318 48.6097 30.6113 48.6117 30.591C48.6137 30.5707 48.6197 30.5511 48.6293 30.5331C48.9137 29.9604 49.1169 29.231 48.4808 28.9305Z" fill="white"/>
<path fill-rule="evenodd" clip-rule="evenodd" d="M0 28.0003C0 21.1237 15.4597 15.566 34.5473 15.566C53.6365 15.566 69.0946 21.1235 69.0946 28.0003C69.0946 34.8745 53.6362 40.4341 34.5473 40.4341C15.4608 40.4341 0 34.8748 0 28.0003ZM34.7218 39.3435C16.3412 39.3435 1.44111 34.2091 1.44111 27.8749C1.44111 21.54 16.3415 16.4058 34.7218 16.4058C53.1007 16.4058 68 21.5397 68 27.8749C68 34.2088 53.1002 39.3435 34.7218 39.3435Z" fill="white"/>
</g>
<defs>
<clipPath id="clip0_710_4020">
<rect width="69.0946" height="56" fill="white"/>
</clipPath>
</defs>
</svg>
