<svg width="111" height="56" viewBox="0 0 111 56" fill="none" xmlns="http://www.w3.org/2000/svg">
<g clip-path="url(#clip0_710_4016)">
<path d="M43.802 21.4058H32.5601V23.912H36.7106V34.5956H39.6558V23.912H43.8064V21.4058M54.7966 30.1174C54.57 30.6933 54.2011 31.2012 53.7251 31.5931C53.2491 31.985 52.6817 32.2477 52.0767 32.3565C51.8522 32.397 51.6247 32.4178 51.3967 32.4188C51.1626 32.4188 50.933 32.3966 50.7123 32.3565C50.1077 32.2479 49.5408 31.9851 49.0655 31.5931C48.5902 31.2012 48.2223 30.6932 47.9967 30.1174C47.7337 29.4424 47.5989 28.7236 47.5993 27.9985C47.5995 27.2748 47.7343 26.5576 47.9967 25.884C48.222 25.3076 48.5898 24.7989 49.0651 24.4062C49.5404 24.0135 50.1074 23.7499 50.7123 23.6405C51.1647 23.5561 51.6286 23.5561 52.0811 23.6405C52.6854 23.7495 53.2521 24.0124 53.7274 24.4043C54.2027 24.7962 54.5707 25.304 54.7966 25.8796C55.3238 27.2422 55.3238 28.7548 54.7966 30.1174ZM51.3967 21.0096C49.5575 21.0096 47.7937 21.7462 46.4932 23.0573C45.1927 24.3683 44.4621 26.1466 44.4621 28.0007C44.4621 29.8549 45.1927 31.6331 46.4932 32.9441C47.7937 34.2552 49.5575 34.9918 51.3967 34.9918C53.2358 34.9918 54.9997 34.2552 56.3002 32.9441C57.6006 31.6331 58.3312 29.8549 58.3312 28.0007C58.3312 26.1466 57.6006 24.3683 56.3002 23.0573C54.9997 21.7462 53.2358 21.0096 51.3967 21.0096ZM58.3732 21.4103H61.8438L65.0804 27.077L68.3169 21.4058H71.7831L66.5507 29.7168V34.5956H63.61V29.7168L58.3732 21.4058M78.7729 32.4188C79.0025 32.4188 79.2321 32.3966 79.4529 32.3565C80.0574 32.2479 80.6243 31.9851 81.0996 31.5931C81.5749 31.2012 81.9429 30.6932 82.1684 30.1174C82.6988 28.7569 82.6988 27.2445 82.1684 25.884C81.9429 25.3082 81.5749 24.8002 81.0996 24.4083C80.6243 24.0163 80.0574 23.7536 79.4529 23.6449C79.0002 23.5631 78.5367 23.5631 78.0841 23.6449C77.4803 23.7543 76.9144 24.0174 76.4399 24.4092C75.9654 24.8011 75.5981 25.3088 75.3729 25.884C75.1104 26.5576 74.9756 27.2748 74.9755 27.9985C74.9755 28.7463 75.1168 29.463 75.3729 30.1174C75.5981 30.6934 75.966 31.2017 76.4413 31.5936C76.9167 31.9856 77.4838 32.2483 78.0885 32.3565C78.3144 32.3975 78.5434 32.4184 78.7729 32.4188ZM71.8405 27.9985C71.8405 26.1449 72.5709 24.3673 73.871 23.0566C75.171 21.7459 76.9343 21.0096 78.7729 21.0096C80.6115 21.0096 82.3747 21.7459 83.6748 23.0566C84.9749 24.3673 85.7053 26.1449 85.7053 27.9985C85.7053 29.852 84.9749 31.6297 83.6748 32.9403C82.3747 34.251 80.6115 34.9873 78.7729 34.9873C76.9343 34.9873 75.171 34.251 73.871 32.9403C72.5709 31.6297 71.8405 29.852 71.8405 27.9985ZM105.783 29.3784L103.857 24.1657L101.928 29.374H105.783M106.635 31.6843H101.071L99.9983 34.5867H96.722L102.021 21.3969H105.686L110.984 34.5867H107.717L106.635 31.6843ZM97.5874 21.4058H86.3455V23.912H90.4961V34.5956H93.4413V23.912H97.583V21.4058M20.5498 19.6608C18.5005 19.0345 16.3681 18.7282 14.2268 18.7527C12.0855 18.7282 9.95311 19.0345 7.90378 19.6608C3.22333 21.1788 0 24.3304 0 27.9629C0 33.0776 6.35835 37.2487 14.2268 37.2487C22.0776 37.2487 28.4536 33.0954 28.4536 27.9629C28.4536 24.3304 25.2391 21.1788 20.5498 19.6608ZM14.2268 33.2646C13.0523 33.2646 12.0941 30.9498 12.0411 28.0163C12.7388 28.092 13.4718 28.1098 14.2268 28.1098C14.9774 28.1098 15.7148 28.0742 16.4169 28.0207C16.3595 30.9454 15.4013 33.2646 14.2268 33.2646ZM12.1868 25.7416C12.4959 23.6805 13.2907 22.2382 14.2268 22.2382C15.1452 22.2382 15.9356 23.6805 16.2668 25.7371C14.9096 25.8594 13.5443 25.8609 12.1868 25.7416ZM17.5164 25.5724C17.0395 22.3673 15.7502 20.0525 14.2268 20.0525C12.7035 20.0525 11.4141 22.3495 10.9372 25.5724C8.0495 25.1095 6.02719 24.0901 6.02719 22.8837C6.02719 21.2544 9.70532 19.9368 14.2268 19.9368C18.7483 19.9368 22.4308 21.2544 22.4308 22.8837C22.4308 24.0856 20.4085 25.1273 17.5208 25.5724H17.5164ZM2.07529 27.629C2.07529 26.0532 2.68464 24.5886 3.73112 23.311C3.71345 23.4001 3.71345 23.498 3.71345 23.5692C3.71345 25.5546 6.65419 27.2195 10.7518 27.8516V28.2967C10.7518 31.9648 11.7674 35.0808 13.1627 36.1536C6.95003 35.7842 2.07971 32.1117 2.07971 27.629H2.07529ZM15.2954 36.1759C16.6907 35.0986 17.7018 31.9826 17.7018 28.3145V27.8694C21.7994 27.2595 24.7402 25.5724 24.7402 23.5915C24.7402 23.498 24.7402 23.4045 24.7225 23.3288C25.7655 24.5243 26.3525 26.0549 26.3783 27.6468C26.3783 32.1117 21.508 35.7842 15.2954 36.1714V36.1759Z" fill="white"/>
</g>
<defs>
<clipPath id="clip0_710_4016">
<rect width="110.984" height="56" fill="white"/>
</clipPath>
</defs>
</svg>
