<svg width="91" height="56" viewBox="0 0 91 56" fill="none" xmlns="http://www.w3.org/2000/svg">
<g clip-path="url(#clip0_710_4030)">
<path d="M32.6722 35.226C31.3034 35.8845 29.7927 36.202 28.2716 36.1508C26.0046 36.1508 24.1896 35.428 22.8266 33.9823C21.4636 32.5367 20.7821 30.6395 20.7821 28.2908C20.7821 25.7663 21.5489 23.7261 23.0823 22.1701C23.8376 21.4018 24.7461 20.7975 25.7502 20.3957C26.7543 19.9939 27.8319 19.8033 28.9144 19.8362C30.1982 19.7949 31.4769 20.016 32.6706 20.4856V22.4563C31.5155 21.8217 30.2134 21.4955 28.8924 21.5097C28.0624 21.4791 27.2354 21.6255 26.4676 21.9389C25.6998 22.2523 25.009 22.7254 24.442 23.3262C23.3047 24.5371 22.7362 26.1554 22.7365 28.181C22.7365 30.104 23.268 31.636 24.3311 32.777C24.8628 33.3438 25.5119 33.7902 26.234 34.0857C26.9562 34.3811 27.7343 34.5187 28.5151 34.4889C29.9727 34.5258 31.4119 34.1599 32.671 33.4321L32.6722 35.226Z" fill="white"/>
<path d="M43.9301 30.7014H35.8957C35.9251 31.9562 36.2659 32.925 36.9182 33.6077C37.2682 33.9564 37.6887 34.2278 38.1522 34.4042C38.6157 34.5806 39.1116 34.6581 39.6074 34.6314C40.8963 34.629 42.1446 34.1856 43.1409 33.3764V35.0718C42.1406 35.7908 40.8183 36.1504 39.1739 36.1504C38.4672 36.1865 37.7611 36.0678 37.1061 35.8026C36.4511 35.5375 35.8633 35.1325 35.3847 34.6165C34.466 33.5939 34.0066 32.1542 34.0066 30.2973C33.9392 28.7293 34.4783 27.1948 35.514 26.0065C35.9765 25.476 36.5513 25.0528 37.1975 24.7668C37.8437 24.4808 38.5456 24.339 39.2534 24.3515C40.7426 24.3515 41.8946 24.8285 42.7094 25.7824C43.5243 26.7364 43.9321 28.0611 43.933 29.7564L43.9301 30.7014ZM42.063 29.1707C42.1103 28.2959 41.8404 27.4332 41.302 26.7379C41.0436 26.4465 40.7219 26.2169 40.3611 26.0662C40.0002 25.9156 39.6095 25.8478 39.2184 25.868C38.8094 25.8614 38.4035 25.9392 38.0266 26.0966C37.6497 26.254 37.3101 26.4873 37.0295 26.7819C36.407 27.4377 36.0169 28.2762 35.9182 29.1707H42.063Z" fill="white"/>
<path d="M55.2439 35.8864H53.4217V29.4573C53.4217 27.065 52.5401 25.8687 50.7769 25.8684C50.3469 25.8595 49.9205 25.9464 49.5291 26.1227C49.1377 26.299 48.7914 26.5601 48.5158 26.8868C47.9052 27.6039 47.5863 28.5202 47.621 29.4573V35.8864H45.7988V24.6138H47.621V26.4852H47.6642C48.0253 25.8215 48.5657 25.2703 49.225 24.8931C49.8844 24.516 50.6367 24.3277 51.398 24.3494C51.9347 24.3167 52.4718 24.4075 52.9672 24.6148C53.4625 24.822 53.9026 25.14 54.2528 25.5439C54.9122 26.3404 55.2418 27.4908 55.2418 28.9951L55.2439 35.8864Z" fill="white"/>
<path d="M67.2351 35.8864H65.4129V29.4573C65.4129 27.065 64.5314 25.8687 62.7685 25.8684C62.3385 25.8595 61.912 25.9464 61.5205 26.1227C61.1291 26.2989 60.7827 26.5601 60.507 26.8868C59.8966 27.604 59.5776 28.5202 59.6122 29.4573V35.8864H57.79V24.6138H59.6122V26.4852H59.6567C60.0177 25.8215 60.5581 25.2703 61.2175 24.8931C61.8768 24.516 62.6292 24.3277 63.3904 24.3494C63.9272 24.3167 64.4643 24.4074 64.9596 24.6147C65.455 24.8219 65.895 25.14 66.2453 25.5439C66.9046 26.3404 67.2343 27.4908 67.2343 28.9951L67.2351 35.8864Z" fill="white"/>
<path d="M74.537 36.1504C73.7908 36.1843 73.0459 36.0611 72.3515 35.7888C71.6571 35.5165 71.029 35.1014 70.5088 34.5709C69.5047 33.5178 69.0028 32.1215 69.0031 30.3817C69.0031 28.4883 69.5252 27.0094 70.5695 25.9451C71.6139 24.8808 73.0251 24.3488 74.8033 24.349C76.4996 24.349 77.8239 24.8664 78.776 25.9011C79.7282 26.9358 80.204 28.3705 80.2035 30.2053C80.2035 32.0035 79.6904 33.4432 78.6643 34.5244C78.1326 35.0702 77.4895 35.4975 76.7778 35.7779C76.0661 36.0582 75.3022 36.1852 74.537 36.1504ZM74.6704 25.8684C74.147 25.8451 73.6251 25.9395 73.144 26.1445C72.6628 26.3495 72.2348 26.6597 71.8922 27.0519C71.2105 27.8409 70.8697 28.9289 70.8697 30.3159C70.8046 31.4597 71.1731 32.5863 71.9032 33.4753C72.2492 33.8586 72.6769 34.1611 73.1553 34.361C73.6338 34.5609 74.1511 34.6533 74.6699 34.6314C75.1804 34.6615 75.691 34.5749 76.1621 34.3783C76.6333 34.1817 77.0524 33.8803 77.3869 33.4975C78.0202 32.7416 78.3368 31.6664 78.3368 30.2719C78.3368 28.8629 78.0202 27.7768 77.3869 27.0136C77.0543 26.628 76.6359 26.3239 76.1645 26.1252C75.6932 25.9265 75.1818 25.8386 74.6704 25.8684Z" fill="white"/>
<path d="M90.5397 24.6138L86.717 30.3163L90.4728 35.8868H88.352L86.1183 32.2321C85.9775 32.0047 85.8108 31.7185 85.6183 31.3735H85.5739C85.5366 31.4394 85.3625 31.7256 85.0514 32.2321L82.7732 35.8868H80.6733L84.5514 30.3607L80.8401 24.6142H82.9608L85.1611 28.4672C85.3243 28.7535 85.4835 29.0471 85.6387 29.3479H85.6832L88.5278 24.6142L90.5397 24.6138Z" fill="white"/>
<path d="M16.685 19.754V23.701C16.685 27.633 12.7922 27.6483 12.7315 27.6483H8.71591V23.701C8.71591 19.7686 12.7311 19.754 12.7311 19.754H16.6871" fill="white"/>
<path d="M8.68723 28.3231V32.3003C8.68723 36.2602 12.6074 36.2751 12.6681 36.2751H16.7147V32.3003C16.7147 28.34 12.6689 28.3231 12.6689 28.3231H8.68723Z" fill="white"/>
<path d="M4.04492 28.3231C4.04492 28.3231 0 28.34 0 32.3003V36.2751H4.04492C4.10732 36.2751 8.02663 36.2602 8.02663 32.3003V28.3231H4.04492Z" fill="white"/>
<path d="M0 19.7249V23.7033C0 27.6624 3.92094 27.6785 3.98211 27.6785H8.02663V23.7033C8.02663 19.741 3.98211 19.7261 3.98211 19.7261L0 19.7249Z" fill="white"/>
</g>
<defs>
<clipPath id="clip0_710_4030">
<rect width="90.5397" height="56" fill="white"/>
</clipPath>
</defs>
</svg>
